<?xml version="1.0" standalone="no"?>
<!DOCTYPE svg PUBLIC "-//W3C//DTD SVG 1.1//EN" "http://www.w3.org/Graphics/SVG/1.1/DTD/svg11.dtd" >
<svg xmlns="http://www.w3.org/2000/svg">
<metadata>
Created by FontForge 20120731 at Tue Jun  7 15:36:56 2016
 By admin
</metadata>
<defs>
<font id="iconfont" horiz-adv-x="1024" >
  <font-face 
    font-family="iconfont"
    font-weight="500"
    font-stretch="normal"
    units-per-em="1024"
    panose-1="2 0 6 3 0 0 0 0 0 0"
    ascent="896"
    descent="-128"
    x-height="792"
    bbox="0 -212 1024 896"
    underline-thickness="50"
    underline-position="-100"
    unicode-range="U+0078-E62A"
  />
<missing-glyph horiz-adv-x="374" 
d="M34 0v682h272v-682h-272zM68 34h204v614h-204v-614z" />
    <glyph glyph-name=".notdef" horiz-adv-x="374" 
d="M34 0v682h272v-682h-272zM68 34h204v614h-204v-614z" />
    <glyph glyph-name=".null" horiz-adv-x="0" 
 />
    <glyph glyph-name="nonmarkingreturn" horiz-adv-x="341" 
 />
    <glyph glyph-name="x" unicode="x" horiz-adv-x="1001" 
d="M281 543q-27 -1 -53 -1h-83q-18 0 -36.5 -6t-32.5 -18.5t-23 -32t-9 -45.5v-76h912v41q0 16 -0.5 30t-0.5 18q0 13 -5 29t-17 29.5t-31.5 22.5t-49.5 9h-133v-97h-438v97zM955 310v-52q0 -23 0.5 -52t0.5 -58t-10.5 -47.5t-26 -30t-33 -16t-31.5 -4.5q-14 -1 -29.5 -0.5
t-29.5 0.5h-32l-45 128h-439l-44 -128h-29h-34q-20 0 -45 1q-25 0 -41 9.5t-25.5 23t-13.5 29.5t-4 30v167h911zM163 247q-12 0 -21 -8.5t-9 -21.5t9 -21.5t21 -8.5q13 0 22 8.5t9 21.5t-9 21.5t-22 8.5zM316 123q-8 -26 -14 -48q-5 -19 -10.5 -37t-7.5 -25t-3 -15t1 -14.5
t9.5 -10.5t21.5 -4h37h67h81h80h64h36q23 0 34 12t2 38q-5 13 -9.5 30.5t-9.5 34.5q-5 19 -11 39h-368zM336 498v228q0 11 2.5 23t10 21.5t20.5 15.5t34 6h188q31 0 51.5 -14.5t20.5 -52.5v-227h-327z" />
    <glyph glyph-name="uniE600" unicode="&#xe600;" 
d="M188 370h-6q-11 0 -19 -8t-8 -19v-6q0 -11 8 -19t19 -8h6q11 0 19 8t8 19v6q0 11 -8 19t-19 8zM503 582q6 0 10.5 4.5t4.5 11t-4.5 11t-10.5 4.5h-242q-7 0 -11.5 -4.5t-4.5 -11t4.5 -11t11.5 -4.5h242zM188 128h-6q-11 0 -19 -8t-8 -19v-6q0 -11 8 -19t19 -8h6
q11 0 19 8t8 19v6q0 11 -8 19t-19 8zM188 249h-6q-11 0 -19 -8t-8 -19v-6q0 -11 8 -19t19 -8h6q11 0 19 8t8 19v6q0 11 -8 19t-19 8zM188 491h-6q-11 0 -19 -8t-8 -19v-6q0 -11 8 -19t19 -8h6q11 0 19 8t8 19v6q0 11 -8 19t-19 8zM604 476h-328q-7 0 -11 -4.5t-4 -10.5
t4 -10.5t11 -4.5h328q6 0 10.5 4.5t4.5 11t-4.5 10.5t-10.5 4zM624 -105q-2 0 -2 1q0 -1 1 -1h1zM630 -107zM630 -107h-1h1zM629 -107q-1 1 -2 1q1 0 2 -1zM617 -103l-1 1h-1q1 0 2 -1zM615 -102zM961 79q-4 54 -38 111q-35 48 -21 124q7 19 7 31.5t-4 14.5l-3 3
q-12 4 -28 -18t-25.5 -44.5t-9.5 -24.5q-47 -31 -44 -5l8 23q14 25 21 52.5t7.5 49t-1 39.5t-3.5 27l-3 10q-45 119 -88 119q-11 0 -11 -2q16 -54 18 -98t-5 -60l-6 -17q-15 -51 -33 -75v289q0 31 -22 53t-53 22h-184q-5 20 -21 33t-37 13t-37.5 -13t-21.5 -33h-183
q-32 0 -54 -22t-22 -53v-636q0 -31 22 -53.5t54 -22.5h453q9 -7 18.5 -12.5t13.5 -8.5l5 -2q27 -9 25 6l-2 4q2 9 4 21q19 9 30.5 27.5t11.5 40.5v68q5 -10 8.5 -23.5t4.5 -21.5l1 -8q30 -6 -8 98q-6 17 -6 16v32q2 9 4.5 18.5t6 16.5t6 12.5t4.5 8.5l2 3q11 8 9 -9l-4 -17
q-9 -72 45 -131l5 -5q2 3 4 9t3.5 12.5t2.5 12.5t1 10l1 4q24 -26 37 -53.5t15 -46t-0.5 -37t-5 -24t-4.5 -8.5q-64 -43 -48 -52q38 3 68.5 16.5t48.5 30t31 40.5t18.5 40t8.5 38.5t3 25.5v11zM381.5 718q12.5 0 21.5 -8.5t9 -21t-9 -21.5t-21.5 -9t-21.5 9t-9 21.5t9 21
t21.5 8.5zM94 -8v636q0 18 13.5 31.5t32.5 13.5h183q2 -8 6 -15h-68q-7 0 -11.5 -4.5t-4.5 -10.5t4.5 -10.5t11.5 -4.5h242q6 0 10.5 4.5t4.5 10.5t-4.5 10.5t-10.5 4.5h-69q4 7 6 15h184q19 0 32 -13.5t13 -31.5v-308q-13 -1 -26 10t-20 22l-7 11q-69 85 -66 51l4 -16
q11 -19 15 -43h-293q-7 0 -11 -4.5t-4 -10.5t4 -10.5t11 -4.5h295q-2 -41 -20 -91h-275q-7 0 -11 -4.5t-4 -10.5t4 -10.5t11 -4.5h263l-11 -23q-17 -35 -23 -68h-229q-7 0 -11 -4.5t-4 -10.5t4 -10.5t11 -4.5h226q-1 -75 57 -136h-419q-19 0 -32.5 13t-13.5 32z" />
    <glyph glyph-name="uniE601" unicode="&#xe601;" 
d="M188 370h-6q-11 0 -19 -8t-8 -19v-6q0 -11 8 -19t19 -8h6q11 0 19 8t8 19v6q0 11 -8 19t-19 8zM188 491h-6q-11 0 -19 -8t-8 -19v-6q0 -11 8 -19t19 -8h6q11 0 19 8t8 19v6q0 11 -8 19t-19 8zM503 582q6 0 10.5 4.5t4.5 11t-4.5 11t-10.5 4.5h-242q-7 0 -11.5 -4.5
t-4.5 -11t4.5 -11t11.5 -4.5h242zM188 128h-6q-11 0 -19 -8t-8 -19v-6q0 -11 8 -19t19 -8h6q11 0 19 8t8 19v6q0 11 -8 19t-19 8zM604 355h-328q-7 0 -11 -4.5t-4 -10.5t4 -10.5t11 -4.5h328q6 0 10.5 4.5t4.5 10.5t-4.5 10.5t-10.5 4.5zM261 461q0 -6 4 -10.5t11 -4.5h328
q6 0 10.5 4.5t4.5 11t-4.5 10.5t-10.5 4h-328q-7 0 -11 -4.5t-4 -10.5zM188 249h-6q-11 0 -19 -8t-8 -19v-6q0 -11 8 -19t19 -8h6q11 0 19 8t8 19v6q0 11 -8 19t-19 8zM741 198l45 101zM810 288l-44 -101zM748 181q5 -3 10 -1q-5 -2 -10 1q-10 4 -7 15q-3 -11 7 -15z
M830 267q-3 5 -7 10l-43 -96q-5 -11 -16 -15.5t-22 0.5t-15.5 16.5t0.5 22.5l43 97q-8 0 -16 -2l-55 -13v341q0 31 -22 53t-53 22h-184q-5 20 -21 33t-37 13t-37.5 -13t-21.5 -33h-183q-32 0 -54 -22t-22 -53v-636q0 -31 22 -53.5t54 -22.5h445l2 -40q2 -21 14.5 -27t29.5 8
l254 206q17 13 21 36t-6 42zM381.5 718q12.5 0 21.5 -8.5t9 -21t-9 -21.5t-21.5 -9t-21.5 9t-9 21.5t9 21t21.5 8.5zM140 -53q-19 0 -32.5 13t-13.5 32v636q0 18 13.5 31.5t32.5 13.5h183q2 -8 6 -15h-68q-7 0 -11.5 -4.5t-4.5 -10.5t4.5 -10.5t11.5 -4.5h242q6 0 10.5 4.5
t4.5 10.5t-4.5 10.5t-10.5 4.5h-69q4 7 6 15h184q19 0 32 -13.5t13 -31.5v-349l-52 -12q-27 -7 -41 -33h-300q-7 0 -11 -4.5t-4 -10.5t4 -10.5t11 -4.5h293v-1l5 -90h-298q-7 0 -11 -4.5t-4 -10.5t4 -10.5t11 -4.5h300l7 -136h-443zM941.5 617.5q-12.5 5.5 -25 0.5
t-18.5 -17l-81 -185q-9 -19 5 -35l-36 -82q13 -3 24 -11l37 82q21 0 30 20l81 184q6 12 1 25t-17.5 18.5zM758 180q1 0 1 1q0 -1 -1 -1zM760 181q1 1 3 2q-2 -1 -3 -2zM759 181h1h-1z" />
    <glyph glyph-name="uniE602" unicode="&#xe602;" 
d="M190 128h-6q-12 0 -20 -8t-8 -19v-6q0 -11 8 -19t20 -8h6q11 0 19 8t8 19v6q0 11 -8 19t-19 8zM190 370h-6q-12 0 -20 -8t-8 -19v-6q0 -11 8 -19t20 -8h6q11 0 19 8t8 19v6q0 11 -8 19t-19 8zM190 249h-6q-12 0 -20 -8t-8 -19v-6q0 -11 8 -19t20 -8h6q11 0 19 8t8 19v6
q0 11 -8 19t-19 8zM504 582q7 0 11.5 4.5t4.5 11t-4.5 11t-11.5 4.5h-242q-6 0 -10.5 -4.5t-4.5 -11t4.5 -11t10.5 -4.5h242zM190 492h-6q-12 0 -20 -8t-8 -20v-6q0 -11 8 -19t20 -8h6q11 0 19 8t8 19v6q0 12 -8 20t-19 8zM916 492h-215v136q0 31 -22 53t-54 22h-183
q-5 20 -21.5 33t-37.5 13t-37 -13t-21 -33h-184q-31 0 -53 -22t-22 -53v-636q0 -31 22 -53.5t53 -22.5h246v-21q0 -18 12.5 -30.5t30.5 -12.5h486q18 0 30.5 12.5t12.5 30.5v553q0 18 -12.5 31t-30.5 13zM383.5 719q12.5 0 21.5 -9t9 -21.5t-9 -21.5t-21.5 -9t-21.5 9
t-9 21.5t9 21.5t21.5 9zM141 -53q-19 0 -32 13t-13 32v636q0 18 13 31.5t32 13.5h184q2 -8 6 -15h-69q-6 0 -10.5 -4.5t-4.5 -10.5t4.5 -10.5t10.5 -4.5h242q7 0 11.5 4.5t4.5 10.5t-4.5 10.5t-11.5 4.5h-68q4 7 6 15h183q19 0 32.5 -13.5t13.5 -31.5v-136h-241
q-20 0 -33 -16h-120q-6 0 -10.5 -4t-4.5 -10.5t4.5 -11t10.5 -4.5h110v-91h-110q-6 0 -10.5 -4.5t-4.5 -10.5t4.5 -10.5t10.5 -4.5h110v-91h-110q-6 0 -10.5 -4.5t-4.5 -10.5t4.5 -10.5t10.5 -4.5h110v-91h-110q-6 0 -10.5 -4.5t-4.5 -10.5t4.5 -10.5t10.5 -4.5h110v-136
h-246zM592 332v17h85l-5 15l24 3l4 -18h81v-17h-189zM602 179v89h171v-65q0 -22 -24 -23h-29q-1 5 -3 13q-1 2 -1 4h22q15 -1 14 11v44h-130v-73h-20zM621 280v41h131v-41h-131zM642 307v-13h90v13h-90zM643 199v41h87v-41h-87zM663 227v-15h48v15h-48zM602 57q-1 3 -4 9
q-3 5 -5 9q33 14 68 39l14 -17q-37 -23 -73 -40zM620 45v19h135v-19h-57v-42h78v-18h-178v18h78v42h-56zM598 102v40h81l-7 20l24 3q4 -10 7 -23h73v-40h-21v20h-135v-20h-22zM771 57q-35 22 -71 40l11 17q6 -3 18 -10q37 -19 53 -29z" />
    <glyph glyph-name="uniE603" unicode="&#xe603;" 
d="M197 128h-6q-11 0 -19 -8t-8 -19v-6q0 -12 8 -20t19 -8h6q12 0 20 8t8 20v6q0 11 -8 19t-20 8zM197 370h-6q-11 0 -19 -8t-8 -19v-6q0 -11 8 -19t19 -8h6q12 0 20 8t8 19v6q0 11 -8 19t-20 8zM197 249h-6q-11 0 -19 -8t-8 -19v-6q0 -11 8 -19t19 -8h6q12 0 20 8t8 19v6
q0 11 -8 19t-20 8zM512 582q6 0 10.5 4.5t4.5 10.5t-4.5 10.5t-10.5 4.5h-242q-6 0 -10.5 -4.5t-4.5 -10.5t4.5 -10.5t10.5 -4.5h242zM197 491h-6q-11 0 -19 -8t-8 -19v-6q0 -11 8 -19t19 -8h6q12 0 20 8t8 19v6q0 11 -8 19t-20 8zM923 491h-214v136q0 32 -22.5 54t-53.5 22
h-183q-5 20 -21.5 32.5t-37.5 12.5t-37 -12.5t-22 -32.5h-183q-31 0 -53.5 -22t-22.5 -54v-635q0 -31 22.5 -53.5t53.5 -22.5h245v-21q0 -18 13 -30.5t31 -12.5h485q18 0 31 12.5t13 30.5v553q0 18 -13 30.5t-31 12.5zM391.5 718q12.5 0 21 -9t8.5 -21.5t-8.5 -21t-21 -8.5
t-21.5 8.5t-9 21t9 21.5t21.5 9zM149 -54q-19 0 -32 13.5t-13 32.5v635q0 19 13 32.5t32 13.5h183q2 -8 7 -15h-69q-6 0 -10.5 -4.5t-4.5 -11t4.5 -11t10.5 -4.5h242q6 0 10.5 4.5t4.5 11t-4.5 11t-10.5 4.5h-69q5 7 7 15h183q19 0 32.5 -13.5t13.5 -32.5v-136h-241
q-20 0 -33 -15h-120q-6 0 -10.5 -4.5t-4.5 -10.5t4.5 -10.5t10.5 -4.5h109v-91h-109q-6 0 -10.5 -4.5t-4.5 -10.5t4.5 -10.5t10.5 -4.5h109v-91h-109q-6 0 -10.5 -4.5t-4.5 -11t4.5 -10.5t10.5 -4h109v-91h-109q-6 0 -10.5 -4.5t-4.5 -11t4.5 -10.5t10.5 -4h109v-137h-245z
M482 360v17h86q-2 10 -6 18l25 2q1 -2 1 -5q2 -4 4 -15h78v-17h-146v-16h133v-16h-154v32h-21zM504 208v106h147v-106h-21v8h-104v-8h-22zM526 300v-15h104v15h-104zM526 271v-14h104v14h-104zM526 243v-12h104v12h-104zM699 341v18h24v36h19v-36h22v-18h-22v-20q3 -2 9 -7
q13 -10 19 -14l-12 -18l-16 17v-90h-19v91q-7 -21 -21 -46q-1 4 -3 14q-1 10 -2 14q16 26 25 59h-23zM790 209q0 1 -4 7q-5 7 -7 10q27 12 44 27q-18 24 -25 59l12 7h-19v-10q3 -62 -28 -99q-7 7 -16 15q26 29 25 84v72q58 3 106 10l7 -20q-40 -5 -94 -8v-25h87v-19
q-8 -37 -29 -66q16 -15 40 -25q-8 -8 -13 -18q-24 14 -41 29q-21 -18 -45 -30zM857 319h-42q8 -32 21 -50q13 18 21 50zM485 -32q-1 4 -2 9q-1 9 -2 12h14q5 -1 7 1t2 7v43l-22 -7l-2 22l24 5v39h-21v19h21v36h19v-36h18v-19h-18v-33l17 4v-20l-17 -5v-54q1 -21 -20 -22
q-9 0 -18 -1zM548 -32v152h47v34h20v-34h47v-152h-20v11h-74v-11h-20zM568 101v-42h27v42h-27zM568 41v-44h27v44h-27zM642 101h-27v-42h27v42zM615 41v-44h27v44h-27zM699 88v19h21v47h19v-47h18v-19h-18v-74l22 5v-20q-28 -6 -61 -13l-3 19q11 3 23 5v78h-21zM771 115v17
h29v22h19v-22h26v-17h-26v-22h7q23 21 43 49l16 -11q0 -2 -3 -3q-19 -25 -30 -35h36v-17h-54q-3 -2 -7 -6q-9 -7 -15 -11h62v-92h-20v10h-58v-10h-20v69l-19 -11q-1 1 -3 5q0 1 -6 13q33 16 57 33h-45v17h40v22h-29zM796 43v-18h58v18h-58zM796 10v-18h58v18h-58z" />
    <glyph glyph-name="uniE604" unicode="&#xe604;" 
d="M189 140h-6q-11 0 -19 -8t-8 -19v-6q0 -11 8 -19t19 -8h6q12 0 20 8t8 19v6q0 11 -8 19t-20 8zM189 382h-6q-11 0 -19 -8t-8 -19v-6q0 -11 8 -19t19 -8h6q12 0 20 8t8 19v6q0 11 -8 19t-20 8zM189 261h-6q-11 0 -19 -8t-8 -19v-6q0 -11 8 -19t19 -8h6q12 0 20 8t8 19v6
q0 11 -8 19t-20 8zM504 624h-242q-6 0 -10.5 -4t-4.5 -10.5t4.5 -11t10.5 -4.5h242q6 0 10.5 4.5t4.5 11t-4.5 10.5t-10.5 4zM189 503h-6q-11 0 -19 -8t-8 -19v-6q0 -11 8 -19t19 -8h6q12 0 20 8t8 19v6q0 11 -8 19t-20 8zM915 503h-214v137q0 31 -22.5 53t-53.5 22h-183
q-5 20 -21.5 33t-37.5 13t-37.5 -13t-21.5 -33h-183q-31 0 -53.5 -22t-22.5 -53v-636q0 -31 22.5 -53.5t53.5 -22.5h245v-21q0 -18 13 -30.5t31 -12.5h485q18 0 31 12.5t13 30.5v553q0 18 -13 30.5t-31 12.5zM383 730q13 0 21.5 -8.5t8.5 -21t-8.5 -21.5t-21.5 -9t-21.5 9
t-8.5 21.5t8.5 21t21.5 8.5zM397 488h-120q-6 0 -10.5 -4.5t-4.5 -10.5t4.5 -10.5t10.5 -4.5h109v-91h-109q-6 0 -10.5 -4.5t-4.5 -10.5t4.5 -10.5t10.5 -4.5h109v-91h-109q-6 0 -10.5 -4.5t-4.5 -10.5t4.5 -10.5t10.5 -4.5h109v-91h-109q-6 0 -10.5 -4.5t-4.5 -10.5
t4.5 -10.5t10.5 -4.5h109v-136h-245q-19 0 -32.5 13t-13.5 32v636q0 18 13.5 31.5t32.5 13.5h183q2 -8 7 -15h-69q-6 0 -10.5 -4.5t-4.5 -11t4.5 -10.5t10.5 -4h242q6 0 10.5 4t4.5 10.5t-4.5 11t-10.5 4.5h-69q5 7 7 15h183q19 0 32.5 -13.5t13.5 -31.5v-137h-241
q-20 0 -33 -15zM892 -12l-14 -14q-9 -8 -14 -13q-4 -4 -13.5 -4t-13.5 4l-69 69l-14 14q-22 -5 -27 0l-8 9q-5 5 1 11l21 21l-57 57l-31 -30q11 -23 11 -47q0 -42 -30 -72t-73 -30q-12 0 -26 4l54 54l-12 59l-60 13l-54 -53q-4 14 -4 26q1 42 31 72t72 30q27 0 51 -15l30 30
l-93 94l-34 20l-27 27l-29 53l9 9l8 8l53 -29l27 -27l20 -34l94 -94l29 30q-14 24 -14 51q0 43 30.5 72.5t72.5 29.5q12 0 26 -4l-54 -53l13 -60l60 -13l53 54q4 -15 4 -27q0 -42 -30 -72t-73 -30q-23 0 -46 12l-31 -30l57 -58l21 21q3 3 6 3t4 -1l1 -1q4 -3 9 -9q2 -3 2 -9
t-1 -12l-1 -6l13 -13q64 -65 70 -70q4 -4 4 -13.5t-4 -13.5z" />
    <glyph glyph-name="uniE605" unicode="&#xe605;" 
d="M189 128h-6q-11 0 -19 -8t-8 -19v-6q0 -12 8 -20t19 -8h6q12 0 20 8t8 20v6q0 11 -8 19t-20 8zM189 370h-6q-11 0 -19 -8t-8 -19v-6q0 -11 8 -19t19 -8h6q12 0 20 8t8 19v6q0 11 -8 19t-20 8zM189 249h-6q-11 0 -19 -8t-8 -19v-6q0 -11 8 -19t19 -8h6q12 0 20 8t8 19v6
q0 11 -8 19t-20 8zM519 597q0 6 -4.5 10.5t-10.5 4.5h-242q-6 0 -10.5 -4.5t-4.5 -10.5t4.5 -10.5t10.5 -4.5h242q6 0 10.5 4.5t4.5 10.5zM189 491h-6q-11 0 -19 -8t-8 -19v-6q0 -11 8 -19t19 -8h6q12 0 20 8t8 19v6q0 11 -8 19t-20 8zM915 491h-214v136q0 32 -22.5 54
t-53.5 22h-183q-5 20 -21.5 32.5t-37.5 12.5t-37.5 -12.5t-21.5 -32.5h-183q-31 0 -53.5 -22t-22.5 -54v-635q0 -31 22.5 -53.5t53.5 -22.5h245v-21q0 -18 13 -30.5t31 -12.5h485q18 0 31 12.5t13 30.5v553q0 18 -13 30.5t-31 12.5zM383 718q13 0 21.5 -9t8.5 -21.5
t-8.5 -21t-21.5 -8.5t-21.5 8.5t-8.5 21t8.5 21.5t21.5 9zM397 476h-120q-6 0 -10.5 -4.5t-4.5 -10.5t4.5 -10.5t10.5 -4.5h109v-91h-109q-6 0 -10.5 -4.5t-4.5 -10.5t4.5 -10.5t10.5 -4.5h109v-91h-109q-6 0 -10.5 -4.5t-4.5 -11t4.5 -10.5t10.5 -4h109v-91h-109
q-6 0 -10.5 -4.5t-4.5 -11t4.5 -10.5t10.5 -4h109v-137h-245q-19 0 -32.5 13.5t-13.5 32.5v635q0 19 13.5 32.5t32.5 13.5h183q2 -8 7 -15h-69q-6 0 -10.5 -4.5t-4.5 -11t4.5 -11t10.5 -4.5h242q6 0 10.5 4.5t4.5 11t-4.5 11t-10.5 4.5h-69q5 7 7 15h183q19 0 32.5 -13.5
t13.5 -32.5v-136h-241q-20 0 -33 -15zM935 -81v-1h-511v4v119v9q0 5 1 7q0 4 3 4q26 3 33 4q3 0 5 -3q18 -31 34 -59q3 -4 8 -4q23 0 65.5 1.5t60.5 1.5q4 0 6 -3q3 -7 9.5 -19t9.5 -18q1 -3 5 -3q6 0 19 -0.5t20 -0.5q4 0 5 3q4 9 16 17q23 15 76 51q3 2 6 0l15 -6l15 -6
q3 -2 6 0q11 8 62 43q24 -21 29 -26q2 -2 2 -4v-111zM497 111q-1 10 -2 10q-3 9 -7 13q-23 24 -6 53q16 28 48 20q-24 -69 -33 -96zM535 204q24 -6 29 -31t-14 -39q-19 -13 -41 -3q8 25 26 73zM476 82h27q2 1 5 2q36 14 56 22q3 2 4 5q4 7 11 21l10 20q2 4 0 7q-3 4 -22 32
q-10 15 1 30q14 17 55 67q1 2 3 4q6 7 14 2q28 -21 58 -43q4 -4 10 -4h18h23q12 0 16 -8q3 -5 11 -22q37 -84 43 -98q3 -6 6 -9q6 -7 49 -55l3 -4q-9 -5 -21 -13q-52 36 -66 46q-2 1 -4 4q-5 8 -11 16.5t-13 19.5l-11 16l-3 3l-2 -2q-25 -42 -28 -48q-2 -3 0 -7
q6 -14 36 -76l1 -3q-3 -2 -10 -6.5t-10 -6.5q-1 2 -10 13.5t-13 17.5q-39 51 -46 60q-3 3 -1 8q7 18 33 79l2 5q-11 -5 -11 -6q-8 -3 -27.5 -11.5t-30.5 -13.5q-4 -1 -6 -5q-13 -21 -30 -49q-2 -4 -6 -5q-14 -3 -77 -20q-2 10 -17 9h-62q-3 -1 -3.5 -0.5t-3.5 2.5l3 2
q12 0 47 2zM932 297q-4 -4 -28 -25q-50 34 -61 42q-4 2 -7 1q-6 -3 -16 -7t-14 -6q-3 -1 -6 1t-35 23t-48 33q-2 1 -8 11q-2 4 -6 4q-18 -1 -39 -1q-4 0 -5 -4q-4 -6 -10 -18l-9 -18q-2 -4 -6 -4q-14 1 -58 2t-68 2q-5 0 -8 -5q-6 -9 -17 -28.5t-17 -29.5q-2 -4 -6.5 -3.5
t-35.5 4.5v141h511v-5v-103q0 -5 -3 -7z" />
    <glyph glyph-name="uniE606" unicode="&#xe606;" 
d="M189 128h-6q-11 0 -19 -8t-8 -19v-6q0 -12 8 -20t19 -8h6q12 0 20 8t8 20v6q0 11 -8 19t-20 8zM189 370h-6q-11 0 -19 -8t-8 -19v-6q0 -11 8 -19t19 -8h6q12 0 20 8t8 19v6q0 11 -8 19t-20 8zM189 249h-6q-11 0 -19 -8t-8 -19v-6q0 -11 8 -19t19 -8h6q12 0 20 8t8 19v6
q0 11 -8 19t-20 8zM504 612h-242q-6 0 -10.5 -4.5t-4.5 -10.5t4.5 -10.5t10.5 -4.5h242q6 0 10.5 4.5t4.5 10.5t-4.5 10.5t-10.5 4.5zM189 491h-6q-11 0 -19 -8t-8 -19v-6q0 -11 8 -19t19 -8h6q12 0 20 8t8 19v6q0 11 -8 19t-20 8zM915 491h-214v136q0 32 -22.5 54t-53.5 22
h-183q-5 20 -21.5 32.5t-37.5 12.5t-37.5 -12.5t-21.5 -32.5h-183q-31 0 -53.5 -22t-22.5 -54v-635q0 -31 22.5 -53.5t53.5 -22.5h245v-21q0 -18 13 -30.5t31 -12.5h485q18 0 31 12.5t13 30.5v553q0 18 -13 30.5t-31 12.5zM828 178q-69 -1 -90 -63l-1 1l-1 1v1l-1 1l-1 1
l-1 1l-1 1l-1 1l-1 1v1l-1 1l-1 1l-1 1l-1 1l-1 1v1l-1 1l-1 1l-1 1l-1 1l-1 1l-1 1v1l-1 2l-1 1l-1 1l-1 1l-1 1v1l-1 1l-1 1l-1 1l-1 1l-1 1v1l-1 1l-1 1l-1 1l-1 1l-1 1l-1 1v1l-1 1l-1 1l-1 1l-1 1l-1 1v1l-1 1l-1 1l-1 1l-1 1l-1 1v1l-1 1l-1 1l-1 1l-1 1l-1 1l-1 1v1
l-1 1l-1 1l-1 1l-1 1l-1 1v1l-1 1l-1 1l-1 1l-1 1l-1 1v1l-1 1l-1 1l-1 1l-1 1l-1 1v1l-1 1l-1 1l-1 1l-1 1l-1 1v1l-1 1l-1 1l-1 1l-1 1l-1 1l-1 1v1l-1 1l-1 1l-1 2l-1 1l-1 1v1l-1 1l-1 1l-1 1l-1 1l-1 1v1l-1 1l-1 1l-1 1l-1 1l-1 1v1l-1 1l-1 1l-1 1l-1 1l-1 1v1l-1 1
l-1 1l-1 1l-1 1l-1 1v1l-1 1l-1 1l-1 1l-1 1l-1 1v1l-1 1l-1 1l-1 1l-1 1l-1 1v1l-1 1l-1 1l-1 1l-1 1l-1 1v1l-1 1l-1 1l-1 1l-1 1l-1 1v1l-1 1l-1 1l-1 1l-1 1l-1 1v1l-1 1l-1 1l-1 1l-1 1l-1 1v1l-1 1l-1 1l-1 1l-1 1l-1 1v1l-1 1l-1 1l-1 1l-1 1l-1 1v1l-1 1l-1 1l-1 1
l-1 1l-1 1v1l-1 1l-1 1l-1 1l-1 1l-1 1v1l-1 1l-1 1l-1 1l-1 1l-1 1v1l-1 1l-1 1l-1 1l-1 1l-1 1v1l-1 1l-1 1l-1 1l-1 1l-1 1v1l-1 1l-1 1l-1 1l-1 1v1l-1 1l-1 1l-1 1l-1 1l-1 1v1l-1 1l-1 1l-1 1l-1 1l-1 1v1l-1 1l-1 1l-1 1l-1 1l-1 1v1l-1 1l-1 1l-1 1l-1 1l-1 1v1
l-1 1l-2 2q5 8 27 39l1 -1h1l1 -1l1 -1l1 -1l1 -1h1v-1l1 -1l1 -1l1 -1h1l1 -1l1 -1l1 -1l1 -1h1l1 -1l1 -1l1 -1l1 -1h1l1 -1l1 -1l1 -1l1 -1h1l1 -1l1 -1l1 -1l1 -1h1l1 -1l1 -1l1 -1l1 -1h1l1 -1l1 -1l1 -1l1 -1h1l1 -1l1 -1l1 -1l1 -1h1l1 -1l1 -1l1 -1l1 -1h1l1 -1
l1 -1l1 -1v-1h1l1 -1l1 -1l1 -1l1 -1h1l1 -1l1 -1l1 -1l1 -1l1 -1h1l1 -1l1 -1l1 -1l1 -1h1l1 -1l1 -1l1 -1l1 -1h1l1 -1l1 -1l1 -1l1 -1h1l1 -1l1 -1l1 -1l1 -1h1l1 -1l1 -1l1 -1l1 -1h1l1 -1l1 -1l1 -1l1 -1h1l1 -1l1 -1l1 -1l1 -1h1l1 -1l1 -1l1 -1v-1h1l1 -1l1 -1l1 -1
l1 -1l1 -1h1l1 -1l1 -1l1 -1l1 -1h1l1 -1l1 -1l1 -1l1 -1h1l1 -1l1 -1l1 -1l1 -1h1l1 -1l1 -1l1 -1l1 -1h1l1 -1l1 -1l1 -1l1 -1h1l1 -1l1 -1l1 -1l1 -1h1l1 -1l1 -1l1 -1l1 -1l1 -1h1l1 -1l1 -1l1 -1l1 -1h1l1 -1l1 -1l1 -1l1 -1h1l1 -1l1 -1l1 -1l1 -1h1l1 -1l1 -1l1 -1
l1 -1l1 -1h1v-1l1 -1l1 -1l1 -1h1l1 -1l1 -1l1 -1l1 -1h1l1 -1l1 -1l1 -1l1 -1h1l1 -1l1 -1l1 -1l1 -1l1 -1h1l1 -1l1 -1l1 -1l1 -1h1l1 -1l1 -1l1 -1l1 -1h1l1 -1l1 -1l1 -1l1 -1l1 -1h1l1 -1l1 -1l1 -1l1 -1h1l1 -1l1 -1l1 -1l1 -1h1l1 -1l1 -1l1 -1l1 -1l1 -1h1l1 -1
l1 -1l1 -1l1 -1h1l1 -1l1 -1l1 -1l1 -1l1 -1h1l1 -1l1 -1l1 -1l1 -1h1l1 -1l1 -1l1 -1l1 -1l1 -1h1l1 -1l1 -1l1 -1l1 -1h1l1 -1l1 -1l1 -1l1 -1l1 -1h1l1 -1l1 -1zM383 718q13 0 21.5 -9t8.5 -21.5t-8.5 -21t-21.5 -8.5t-21.5 8.5t-8.5 21t8.5 21.5t21.5 9zM397 476h-120
q-6 0 -10.5 -4.5t-4.5 -10.5t4.5 -10.5t10.5 -4.5h109v-91h-109q-6 0 -10.5 -4.5t-4.5 -10.5t4.5 -10.5t10.5 -4.5h109v-91h-109q-6 0 -10.5 -4.5t-4.5 -11t4.5 -10.5t10.5 -4h109v-91h-109q-6 0 -10.5 -4.5t-4.5 -11t4.5 -10.5t10.5 -4h109v-137h-245q-19 0 -32.5 13.5
t-13.5 32.5v635q0 19 13.5 32.5t32.5 13.5h183q2 -8 7 -15h-69q-6 0 -10.5 -4.5t-4.5 -11t4.5 -11t10.5 -4.5h242q6 0 10.5 4.5t4.5 11t-4.5 11t-10.5 4.5h-69q5 7 7 15h183q19 0 32.5 -13.5t13.5 -32.5v-136h-241q-20 0 -33 -15zM562 229q-5 -17 -20 -28t-33 -11t-33 11.5
t-20 29.5q-1 3 -1 4q2 4 9 22q2 -2 6.5 -5t7.5 -5.5t3 -4.5q7 -26 31 -24.5t25 25.5q1 22 -25 30q-5 2 -9.5 8t-5.5 11q-2 8 -1 41q0 19 -5 28q-26 12 -26 40q0 18 13 31t31.5 13t31.5 -13t13 -31q0 -28 -26 -40q-5 -8 -5.5 -18t1 -22t0.5 -19q0 -2 14 -11q16 -10 22.5 -27
t1.5 -35zM904 -83h-179q37 175 42 198q3 17 17.5 27t32 9t30.5 -11t17 -28q5 -25 11 -54t13 -63.5t11 -53.5q1 -1 5 -16v-8zM510 401zM488 401q0 9 6.5 15t15.5 6t15 -6t6 -15t-6 -15t-15 -6t-15.5 6t-6.5 15zM814 132q-12 0 -20 -8.5t-9 -19.5q0 -13 8.5 -21.5t21.5 -8.5
q12 0 20.5 8t8.5 20q0 13 -8.5 21.5t-21.5 8.5z" />
    <glyph glyph-name="uniE607" unicode="&#xe607;" 
d="M189 128h-6q-11 0 -19 -8t-8 -19v-6q0 -12 8 -20t19 -8h6q12 0 20 8t8 20v6q0 11 -8 19t-20 8zM189 370h-6q-11 0 -19 -8t-8 -19v-6q0 -11 8 -19t19 -8h6q12 0 20 8t8 19v6q0 11 -8 19t-20 8zM189 249h-6q-11 0 -19 -8t-8 -19v-6q0 -11 8 -19t19 -8h6q12 0 20 8t8 19v6
q0 11 -8 19t-20 8zM504 612h-242q-6 0 -10.5 -4.5t-4.5 -10.5t4.5 -10.5t10.5 -4.5h242q6 0 10.5 4.5t4.5 10.5t-4.5 10.5t-10.5 4.5zM189 491h-6q-11 0 -19 -8t-8 -19v-6q0 -11 8 -19t19 -8h6q12 0 20 8t8 19v6q0 11 -8 19t-20 8zM915 491h-214v136q0 32 -22.5 54t-53.5 22
h-183q-5 20 -21.5 32.5t-37.5 12.5t-37.5 -12.5t-21.5 -32.5h-183q-31 0 -53.5 -22t-22.5 -54v-635q0 -31 22.5 -53.5t53.5 -22.5h245v-21q0 -18 13 -30.5t31 -12.5h485q18 0 31 12.5t13 30.5v553q0 18 -13 30.5t-31 12.5zM383 718q13 0 21.5 -9t8.5 -21.5t-8.5 -21
t-21.5 -8.5t-21.5 8.5t-8.5 21t8.5 21.5t21.5 9zM397 476h-120q-6 0 -10.5 -4.5t-4.5 -10.5t4.5 -10.5t10.5 -4.5h109v-91h-109q-6 0 -10.5 -4.5t-4.5 -10.5t4.5 -10.5t10.5 -4.5h109v-91h-109q-6 0 -10.5 -4.5t-4.5 -11t4.5 -10.5t10.5 -4h109v-91h-109q-6 0 -10.5 -4.5
t-4.5 -11t4.5 -10.5t10.5 -4h109v-137h-245q-19 0 -32.5 13.5t-13.5 32.5v635q0 19 13.5 32.5t32.5 13.5h183q2 -8 7 -15h-69q-6 0 -10.5 -4.5t-4.5 -11t4.5 -11t10.5 -4.5h242q6 0 10.5 4.5t4.5 11t-4.5 11t-10.5 4.5h-69q5 7 7 15h183q19 0 32.5 -13.5t13.5 -32.5v-136
h-241q-20 0 -33 -15zM888 95q-105 -112 -137 -132q-48 -36 -108 -36q-45 0 -80 25.5t-48 66.5v1q-1 2 -1 3l-63 206q-5 12 0.5 24t17.5 16t23.5 -1.5t15.5 -17.5l36 -96q1 -3 2 -2.5t0 2.5l-24 176q-2 12 5.5 23t19.5 13t22.5 -5.5t12.5 -19.5l27 -150l2 -2v2l1 192
q0 13 9 22t21.5 9t21.5 -9t9 -22l9 -190q0 -4 1.5 -4t2.5 3l25 147q2 12 11.5 20.5t22 7t20.5 -12t6 -23.5l-22 -187q-4 -32 2 -39t15.5 -6.5t18.5 8.5l45 46q12 11 27.5 10.5t27.5 -12.5t13 -28t-10 -28z" />
    <glyph glyph-name="uniE608" unicode="&#xe608;" 
d="M479 410.5q0 -11.5 9.5 -19.5t22.5 -8h56q13 0 22.5 8t9.5 19.5t-9.5 19.5t-22.5 8h-56q-13 0 -22.5 -8t-9.5 -19.5zM762 508q0 11 -9.5 19.5t-22.5 8.5h-219q-13 0 -22.5 -8.5t-9.5 -19.5t9.5 -19t22.5 -8h219q13 0 22.5 8t9.5 19zM506 -114q-11 11 -13 12.5t-34 1.5
h-309q-13 0 -22.5 9.5t-9.5 22.5v728q0 13 9.5 22.5t22.5 9.5h631q13 0 22.5 -9.5t9.5 -22.5v-295q0 -32 3 -33.5t13 -7.5t30 -21q4 -3 7 7q2 8 2 19v386q0 13 -9.5 22.5t-22.5 9.5h-741q-13 0 -22.5 -9.5t-9.5 -22.5v-838q0 -13 9.5 -22.5t22.5 -9.5h433q22 0 21 7
q0 2 -3 3q-28 20 -40 31zM408.5 130.5q4.5 -0.5 10 8.5t8.5 22l11 31q13 30 13.5 31t0.5 33v3q0 13 -9.5 22.5t-22.5 9.5h-219q-13 0 -22.5 -9.5t-9.5 -22.5v-219q0 -13 9.5 -22.5t22.5 -9.5h195q5 0 10 0.5t8.5 1t6.5 1.5t4.5 2t0.5 2q-1 6 -4 18q-2 10 -4 25q-1 5 -33 5
h-129q-13 0 -22.5 9.5t-9.5 22.5v109q0 13 9.5 22.5t22.5 9.5h109q13 0 22.5 -9.5t9.5 -22.5v-41q0 -13 3.5 -22.5t8 -10zM762 622q0 11 -9.5 19.5t-22.5 8.5h-219q-13 0 -22.5 -8.5t-9.5 -19.5t9.5 -19t22.5 -8h219q13 0 22.5 8t9.5 19zM452 618q0 13 -9.5 22.5t-22.5 9.5
h-219q-13 0 -22.5 -9.5t-9.5 -22.5v-219q0 -14 9.5 -23t22.5 -9h219q13 0 22.5 9t9.5 23v219zM256 422q-13 0 -22.5 9t-9.5 23v109q0 13 9.5 22.5t22.5 9.5h109q13 0 22.5 -9.5t9.5 -22.5v-109q0 -14 -9.5 -23t-22.5 -9h-109zM871 -54q49 63 49 143q0 95 -67.5 162.5
t-162.5 67.5q-96 0 -163.5 -67.5t-67.5 -163t67.5 -163t163.5 -67.5q79 0 142 49l99 -99l39 39zM865 89q0 -69 -47 -120l-9 -9q-51 -47 -119 -47q-73 0 -124.5 51.5t-51.5 124t51.5 124t124.5 51.5q72 0 123.5 -51.5t51.5 -123.5z" />
    <glyph glyph-name="uniE609" unicode="&#xe609;" 
d="M177 151h671v489h-671v-489zM799 591v-391h-573v391h573zM126 35h279v-44h-113v-143h441v143h-114v44h280q25 0 42.5 17.5t17.5 42.5v596q0 25 -17.5 42.5t-42.5 17.5h-773q-25 0 -43 -17.5t-18 -42.5v-596q0 -25 18 -42.5t43 -17.5zM910 95q0 -4 -3.5 -7.5t-7.5 -3.5
h-329v-143h114v-44h-343v44h113v143h-328q-5 0 -8.5 3.5t-3.5 7.5v596q0 4 3.5 7.5t8.5 3.5h773q4 0 7.5 -3.5t3.5 -7.5v-596z" />
    <glyph glyph-name="uniE60A" unicode="&#xe60a;" 
d="M867 748h-710q-38 0 -65 -27t-27 -66v-517q0 -38 27 -65t65 -27h223v-130h-157q-13 0 -22.5 -9t-9.5 -22t9.5 -22.5t22.5 -9.5h577q13 0 22 9.5t9 22.5t-9 22t-22 9h-162v130h229q38 0 65 27t27 65v517q0 39 -27 66t-65 27zM446 -84v130h127v-130h-127zM894 138
q0 -11 -8 -19t-19 -8h-229h-258h-223q-11 0 -19 8t-8 19v517q0 12 8 19.5t19 7.5h710q11 0 19 -7.5t8 -19.5v-517zM191 174h641v447h-641v-447zM257 555h509v-315h-509v315z" />
    <glyph glyph-name="uniE60B" unicode="&#xe60b;" 
d="M128 402v-204h768v204h-768zM269 262h-77v76h77v-76zM832 274h-358v52h358v-52zM128 658v-204h768v204h-768zM269 518h-77v76h77v-76zM832 530h-358v52h358v-52zM128 146v-204h768v204h-768zM269 6h-77v76h77v-76zM832 18h-358v52h358v-52z" />
    <glyph glyph-name="uniE60C" unicode="&#xe60c;" 
d="M513 541q-84 0 -144 -59.5t-60 -143.5t60 -143.5t144 -59.5t143.5 59.5t59.5 143.5t-59.5 143.5t-143.5 59.5zM512.5 186q-62.5 0 -107 44.5t-44.5 107.5t44.5 107.5t107 44.5t107 -44.5t44.5 -107.5t-44.5 -107.5t-107 -44.5zM514 582q20 0 34 14t14 34t-14 34t-34 14
t-34 -14t-14 -34t14 -34t34 -14zM514 633q3 0 3 -3t-3 -3t-3 3t3 3zM865 532q-29 69 -82 122t-121 82q-72 30 -149.5 30t-149.5 -30q-68 -29 -121 -82t-82 -122q-30 -71 -30 -149t30 -149q29 -69 82 -122t121 -82q17 -7 34 -12l-58 -144h-17q-11 0 -18.5 -7.5t-7.5 -18.5
t7.5 -18.5t18.5 -7.5h352v0h36q11 0 18.5 7.5t7.5 18.5t-7.5 18.5t-18.5 7.5h-19l-57 146q37 12 70 31q87 51 139 138q52 89 52 194q0 78 -30 149zM636 -126h-241l53 131q32 -5 64 -5q36 0 72 7zM799 215q-45 -76 -121 -119q-76 -45 -166 -45q-137 0 -234 97.5t-97 234.5
t97 234.5t234.5 97.5t234.5 -97.5t97 -234.5q0 -91 -45 -168z" />
    <glyph glyph-name="uniE60D" unicode="&#xe60d;" 
d="M163 405h3q34 114 129.5 187t216.5 73q122 0 217.5 -72.5t128.5 -186.5q7 -13 21 -13q9 0 16 7t7 16q0 3 -1 7v0q-1 2 -1 3q-39 125 -146 204.5t-242 79.5q-137 0 -245 -82.5t-145 -210.5l-57 16l46 -136l116 90zM957 172l-46 136l-116 -90l62 -18q-34 -112 -129 -184
t-216 -72q-120 0 -215 71.5t-129 183.5q-5 17 -22 17q-9 0 -16 -6.5t-7 -16.5q0 -2 1 -4h-1q38 -128 145.5 -209t243.5 -81q137 0 244 81t145 208z" />
    <glyph glyph-name="uniE60E" unicode="&#xe60e;" 
d="M386 803l-377 -503h377l-251 -503l880 629h-503l377 377h-503z" />
    <glyph glyph-name="uniE60F" unicode="&#xe60f;" 
d="M298 429l-116 77l-20 -38l117 -78zM531 681h-38v-213h38v213zM395 468l-77 155l-39 -19l77 -156zM747 603l-41 20l-77 -155l39 -20zM901 759h-778q-24 0 -41 -17t-17 -41v-778q0 -24 17 -41t41 -17h778q24 0 41 17t17 41v778q0 24 -17 41t-41 17zM901 -58q0 -8 -6 -13.5
t-14 -5.5h-738q-8 0 -14 5.5t-6 13.5v739q0 8 6 14t14 6h738q8 0 14 -6t6 -14v-739zM512 448q-98 0 -186 -55.5t-123 -137.5v-214l-2 -98h622v82v237q-36 79 -125 132.5t-186 53.5zM765 1h-272l1 368l13 1q13 1 28.5 0.5t38 -3t46 -11.5t48.5 -23t50.5 -39.5t46.5 -59.5
v-233zM745 429l20 -39l97 78l-20 38z" />
    <glyph glyph-name="uniE610" unicode="&#xe610;" 
d="M894 175q53 0 90.5 37.5t37.5 90.5t-37.5 90.5t-90.5 37.5q-43 0 -77 -26t-46 -66h-319l179 309h140q12 -40 46 -66t77 -26q53 0 90.5 37.5t37.5 90.5t-37.5 90.5t-90.5 37.5q-43 0 -77 -26t-46 -67h-181l-220 -380h-120q-11 40 -45 66t-77 26q-53 0 -90.5 -37.5
t-37.5 -90.5t37.5 -90.5t90.5 -37.5q43 0 77 26t45 67h120l220 -384h181q12 -40 46 -66t77 -26q53 0 90.5 37.5t37.5 90.5t-37.5 90.5t-90.5 37.5q-43 0 -77 -26t-46 -67h-140l-179 313h319q12 -41 46 -67t77 -26z" />
    <glyph glyph-name="uniE611" unicode="&#xe611;" 
d="M511.5 515q88.5 0 151.5 -63t63 -152t-63 -151.5t-151.5 -62.5t-151.5 62.5t-63 151.5t63 152t151.5 63zM512 556q-106 0 -181 -75t-75 -180.5t75 -180.5t180.5 -75t180.5 75t75 180.5t-75 180.5t-180 75zM511 301zM362 300.5q0 61.5 44 105.5t105.5 44t105 -44
t43.5 -105.5t-43.5 -105t-105 -43.5t-105.5 43.5t-44 105zM480 50h64v-134h-64v134zM128 332h134v-64h-134v64zM480 686h64v-135h-64v135zM761 332h135v-64h-135v64z" />
    <glyph glyph-name="uniE612" unicode="&#xe612;" 
d="M887 -147v843l-133 116l-444 -166v-41l403 136v-949h268v61h-94zM166 112l211 43v107l-211 -56v-94zM166 -210h211v113l-211 -16v-97zM166 -48l211 20v107l-211 -35v-92zM166 276l211 58v111l-211 -71v-98zM611 553l-119 72l-449 -162v-675h59v643l336 110v-750h173v762z
M611 553z" />
    <glyph glyph-name="uniE613" unicode="&#xe613;" horiz-adv-x="1026" 
d="M847 754q-21 0 -38 -18q-7 0 -13 -4q-171 -118 -180 -125q5 4 -13 4q-8 -1 -25 -1q-14 -1 -18 -1h-157h-30h-31q-9 0 -28.5 -0.5t-30.5 -2.5t-27.5 -4.5t-30.5 -7t-28 -10.5q-114 -48 -114 -231q0 -57 16.5 -99t42.5 -67t66.5 -41t80 -21.5t90.5 -7.5v-209
q0 -19 13.5 -32.5t32.5 -13.5t32.5 13.5t13.5 32.5v209q137 5 151 -3l201 -125q8 -5 17 -3q5 -1 7 -1q31 0 54 39t34.5 101t17 123.5t5.5 121.5t-5.5 121t-17 123t-34.5 101t-54 39zM594 164q-21 0 -62 -1.5t-73.5 -3t-75.5 -0.5t-76.5 6t-68 17.5t-56.5 31.5t-36.5 50
t-14.5 72q0 48 9 86.5t29.5 70.5t57 49.5t87.5 17.5h226q8 0 26 -1t30 -1t26.5 3t24.5 10q81 56 122 83q-32 -109 -32 -284q0 -174 31 -284q-51 37 -92.5 57.5t-81.5 20.5zM850 29q-2 1 -3 2q-6 4 -13 8q-15 23 -29 78t-21 138q77 53 77 114.5t-77 115.5q6 72 18.5 126.5
t24.5 77t20 22.5q6 0 14.5 -12t18 -40t17 -66.5t13 -97t5.5 -125.5q0 -105 -12.5 -186t-26.5 -115.5t-26 -39.5z" />
    <glyph glyph-name="uniE614" unicode="&#xe614;" 
d="M871 536q-30 69 -84 123t-123 84q-73 30 -152 30t-152 -30q-69 -30 -123 -84q-21 -20 -38 -44q-1 -1 -2 -1q-26 -37 -44 -78q-30 -73 -30 -152t30 -152q30 -69 84 -123t123 -84q73 -30 152 -30t152 30q69 30 123 84t84 123q30 73 30 152t-30 152zM805 196q-41 21 -96 35
q15 63 16 133h135q-5 -92 -55 -168zM164 364h134q2 -70 17 -133q-55 -14 -96 -35q-50 76 -55 168zM221 576q41 -21 95 -35q-16 -65 -18 -137h-134q6 94 57 172zM492 404h-153q2 67 17 128q64 -13 136 -15v-113zM492 364v-109q-72 -2 -137 -15q-14 59 -16 124h153zM532 364
h153q-2 -65 -16 -124q-65 13 -137 15v109zM532 404v113q72 2 136 15q15 -61 17 -128h-153zM532 558v172q22 -6 42 -22q32 -25 57 -73q15 -29 26 -64q-59 -11 -125 -13zM450 708q20 16 42 22v-172q-66 2 -125 13q11 35 26 64q25 48 57 73zM492 214v-176q-22 6 -42 22
q-32 25 -57 73q-16 31 -27 68q60 11 126 13zM574 60q-20 -16 -42 -22v176q66 -2 126 -13q-11 -37 -27 -68q-25 -48 -57 -73zM725 404q-2 72 -17 137q54 14 95 35q51 -78 57 -172h-135zM758 630q11 -10 20 -21q-35 -17 -81 -29q-12 41 -30 74q-18 34 -39 59q74 -26 130 -83z
M396 713q-21 -25 -39 -59q-18 -33 -30 -74q-46 12 -81 29q9 11 20 21q56 57 130 83zM266 138q-12 11 -23 24q36 18 82 30q14 -43 32 -78q18 -34 39 -59q-74 26 -130 83zM628 55q21 25 39 59q18 35 31 78q47 -12 83 -30q-11 -13 -23 -24q-56 -57 -130 -83z" />
    <glyph glyph-name="uniE615" unicode="&#xe615;" 
d="M798 500h-572q-9 0 -15 -5.5t-6 -14.5v-130q0 -8 6 -14.5t15 -6.5h572q8 0 14 6.5t6 14.5v130q0 9 -6 14.5t-14 5.5zM367 371h-121v88h121v-88zM777 371h-341v88h341v-88zM911 582l-2 2q-50 51 -122 51h-18l-1 1l-149 86q-15 8 -31 2l-176 101q-7 4 -15.5 2t-12.5 -9
q-4 -8 -2 -16.5t10 -12.5l175 -101q2 -17 18 -26l46 -27h-394q-70 0 -121 -49l-2 -2q-50 -50 -50 -121v-349q0 -69 49 -120l1 -2q51 -50 123 -50h550q72 0 122 50v0q50 51 50 122v349q0 69 -48 119zM890 114q0 -43 -30 -73q-31 -30 -73 -30h-550q-42 0 -73 30l-2 1
q-29 31 -29 72v349q0 42 31 72l1 2q30 28 72 28h550q43 0 73 -30l2 -1q28 -30 28 -71v-349zM781 262q-37 37 -89 37t-89 -36l-1 -1q-37 -37 -37 -90q0 -52 37 -90q37 -37 90 -37q52 0 89 37q37 38 37 90q0 53 -37 90v0zM752 112v0q-25 -25 -60 -25t-61 25h1q-25 24 -25 60
t25 60l1 1q25 24 59 24q35 0 60 -25t25 -60t-25 -60z" />
    <glyph glyph-name="uniE616" unicode="&#xe616;" 
d="M387 332zM781 350h-200v-50h200v50zM480 501v50h-50v-50h50zM581 450h100v51h-100v-51zM781 200h-551v-50h551v50zM230 -1h551v50h-551v-50zM631 751h-201v-100h201v100zM380 601v-50h50v50h-50zM731 751h-50v-50h5l8 -8q-13 -32 -13 -67q0 -73 51.5 -124.5t124.5 -51.5
q12 0 25 2v-453q0 -42 -29.5 -71t-71.5 -29h-551q-42 0 -71.5 29t-29.5 71v602q0 42 29.5 71t71.5 29h150v50h-200q-42 0 -71.5 -29t-29.5 -71v-702q0 -42 29.5 -71t71.5 -29h652q41 0 70.5 29t29.5 71v599zM882 503q-13 -2 -25 -2q-52 0 -89 36.5t-37 88.5q0 14 3 27
l148 -146v-4zM330 501h50v50h-50v-50zM230 300v-50h301v50h-101v50h50v50h-50v50h-50v-150h-50v100h-50v-100h-50zM230 400h50v50h-50v-50zM280 450h50v51h-50v-51zM531 450v51h-51v-51h51z" />
    <glyph glyph-name="uniE617" unicode="&#xe617;" 
d="M512 493q-27 0 -46 -19t-19 -45.5t19 -45.5t46 -19t46 19t19 45.5t-19 45.5t-46 19zM783 698q-151 0 -271 89q-120 -89 -271 -89q-53 0 -109 19v-426q0 -61 41 -141q42 -83 120 -169q70 -78 148 -137q29 -22 55 -37q11 -7 23 0q26 16 56 39q80 61 151 139q80 87 124 169
q42 79 42 137v426q-56 -19 -109 -19zM553 256v-186q0 -17 -12 -29t-29 -12t-29 12t-12 29v186q-59 14 -97.5 62t-38.5 111q0 73 52 125t125 52t125 -52t52 -125q0 -63 -38.5 -111t-97.5 -62z" />
    <glyph glyph-name="uniE618" unicode="&#xe618;" 
d="M512 710q91 0 155 -60t64 -145h110q0 83 -44 154t-120 112t-165 41t-165 -41t-120 -112t-44 -154h110q0 85 64 145t155 60zM878 437h-732q-30 0 -51.5 -20t-21.5 -49v-512q0 -28 21.5 -48t51.5 -20h732q30 0 51.5 20t21.5 48v512q0 29 -21.5 49t-51.5 20zM890 -145
q0 -6 -4.5 -10t-9.5 -4h-724q-6 0 -10 4t-4 10v505q0 5 4 9.5t10 4.5h724q5 0 9.5 -4.5t4.5 -9.5v-505zM512 266q-45 0 -77.5 -30t-32.5 -73q0 -27 15 -50.5t40 -37.5v-97q0 -22 16 -37.5t39 -15.5t39 15.5t16 37.5v97q25 14 40 37.5t15 50.5q0 43 -32.5 73t-77.5 30z" />
    <glyph glyph-name="uniE619" unicode="&#xe619;" 
d="M384 160q0 112 64 202t166 128q26 58 26 118q0 39 -0.5 58.5t-2.5 53t-7 50.5t-14 41t-23 36.5t-34 25.5t-48 18t-63 5t-63 -5t-48 -18t-34 -25.5t-23 -36.5t-14 -41t-7 -50.5t-2.5 -53t-0.5 -58.5q0 -73 37 -140t91 -98v-53q-107 -8 -195 -43.5t-138.5 -91t-50.5 -118.5
h397q-13 47 -13 96zM736 448q-119 0 -203.5 -84.5t-84.5 -203.5t84.5 -203.5t203.5 -84.5t203.5 84.5t84.5 203.5t-84.5 203.5t-203.5 84.5zM896 128h-128v-128h-64v128h-128v64h128v128h64v-128h128v-64z" />
    <glyph glyph-name="uniE61A" unicode="&#xe61a;" 
d="M679.5 851q-117.5 0 -200.5 -83t-83 -200q0 -26 5 -52l-344 -344v-170q0 -24 16.5 -40.5t39.5 -16.5h57v57h113v113h113v113h85q21 89 93 146.5t165 57.5q86 0 155 -49q68 80 68 185q0 117 -82.5 200t-200 83zM764 568q-35 0 -60 25t-25 60t25 60t60 25t60 -25t25 -60
t-25 -60t-60 -25zM952 212h-42q-1 1 -6.5 16t-10.5 23l30 29q7 7 7 16.5t-7 16.5l-34 34q-7 7 -17 7t-17 -7l-28 -30q-8 5 -23 10.5t-16 6.5v42q0 10 -8.5 17t-19.5 7h-48q-10 0 -18.5 -7t-8.5 -17v-42q-1 -1 -16.5 -6.5t-22.5 -10.5l-29 30q-7 7 -17 7t-17 -7l-33 -34
q-7 -7 -7 -17t7 -17l30 -28q-5 -8 -11 -23t-6 -16h-42q-10 0 -17.5 -8.5t-7.5 -19.5v-48q0 -10 7.5 -18.5t17.5 -8.5h42q0 -1 6 -16.5t11 -22.5l-30 -29q-7 -7 -7 -17t7 -17l34 -33q7 -7 17 -7t17 7l28 30q7 -5 22.5 -11t16.5 -6v-42q0 -10 8.5 -17t18.5 -7h48q11 0 19.5 7
t8.5 17v42q1 0 16 6t23 11l29 -30q7 -7 16.5 -7t16.5 7l34 34q7 7 7 17t-7 17l-30 28q5 7 10.5 22.5t6.5 16.5h42q10 0 17 8.5t7 18.5v48q0 11 -7 19.5t-17 8.5zM736.5 52q-44.5 0 -76.5 32t-32 76.5t32 76.5t76.5 32t76.5 -32t32 -76.5t-32 -76.5t-76.5 -32z" />
    <glyph glyph-name="uniE61B" unicode="&#xe61b;" 
d="M614 805v-32h320v-845h-340v176h-172v-176h-333v845h315v32h-347v-909h365h172h372v909h-352zM562 -72h-108v144h108v-144zM516 685q30 0 51 17t25 51l-42 2q-6 -35 -34 -35q-16 0 -25.5 12.5t-9.5 47.5q0 61 34 61q30 0 31 -40l46 3q-8 72 -76 72q-39 0 -61.5 -27
t-22.5 -69q0 -44 23.5 -69.5t60.5 -25.5zM353 453h-202v-134h202v134zM321 351h-138v70h138v-70zM613 453h-202v-134h202v134zM581 351h-138v70h138v-70zM683 319h202v134h-202v-134zM715 421h138v-70h-138v70zM151 152h202v134h-202v-134zM183 254h138v-70h-138v70z
M613 286h-202v-134h202v134zM581 184h-138v70h138v-70zM683 152h202v134h-202v-134zM715 254h138v-70h-138v70zM353 646h-202v-134h202v134zM321 544h-138v70h138v-70zM613 646h-202v-134h202v134zM581 544h-138v70h138v-70zM885 646h-202v-134h202v134zM853 544h-138v70
h138v-70z" />
    <glyph glyph-name="uniE61C" unicode="&#xe61c;" 
d="M764 616q46 3 90.5 -8.5t78.5 -28.5t55.5 -36t21.5 -32t-16.5 -16t-41 -5t-54 -8t-55.5 -27q-18 -13 -33.5 -29t-31.5 -30.5t-33 -27t-36 -19.5q-10 -3 -24.5 -6.5t-30 -1.5t-32.5 10.5t-32 29.5q-10 -13 -17 -31t-12.5 -39t-9.5 -43.5t-6 -41.5q-2 -17 -3.5 -41.5
t-1 -48.5t3 -44t6.5 -29q6 -10 6 -16t-5.5 -11t-21.5 -5q-17 0 -23 5t-6 11q-1 6 4 15q6 11 7.5 25.5t1 31.5t-1.5 34.5t-1 34.5q-18 34 -34 58.5t-36 45.5q-12 -26 -28 -39t-32.5 -18t-31 -4.5t-25.5 2.5q-20 4 -37.5 13t-35 20.5t-35.5 24.5t-36 23q-29 17 -59 18
t-54.5 -2t-40 -2.5t-15.5 15t18 36.5t48 43t70.5 38t84.5 21q69 7 114.5 -6.5t71 -39t32 -58t-2.5 -65.5q35 -32 69 -81q6 54 28 108q8 19 16 32t19 28q-18 32 -18.5 68t21 68t66 54t117.5 27zM439 315q-61 53 -129 68t-140 -3q-2 0 -1 -0.5t3 -0.5q32 3 65 2.5t66 -10
t66 -27.5t64 -48zM840 523q2 0 3 0.5t-2 0.5q-80 8 -144.5 -24.5t-113.5 -94.5l11 -19q29 41 60.5 67t63.5 41.5t62.5 21.5t59.5 7zM270 -35q-9 7 5 17.5t41.5 21.5t62 22.5t65.5 20.5q14 4 22.5 -1t15.5 -12.5t17.5 -14.5t30 -7t30 7t18 14t15 12t22.5 2q31 -9 66 -21
t63 -23.5t42 -22t3 -15.5q-26 -15 -70 -24t-96 -13.5t-107 -4.5t-104.5 5t-87.5 14.5t-54 22.5z" />
    <glyph glyph-name="uniE61D" unicode="&#xe61d;" 
d="M863 301v76h-75v519h-14v-519h-76v-76h-80l-103 297h-90l-102 -297h-323v-13h319l-62 -180h94l41 117h158l40 -117h94l-62 180h76v-76h76v-340h14v340h75v76h161v13h-161zM410 303l55 179l61 -179h-116zM712 363h62v-62h-62v62zM712 226v62h62v-62h-62zM850 226h-62v62
h62v-62zM850 301h-62v62h62v-62z" />
    <glyph glyph-name="uniE61E" unicode="&#xe61e;" 
d="M924 575h-296v110q0 8 -6 14t-15 6h-193q-9 0 -15 -6t-6 -14v-110h-296q-14 0 -24 -10t-10 -25v-629q0 -14 10 -24.5t24 -10.5h827q14 0 24 10.5t10 24.5v629q0 15 -10 25t-24 10zM435 664h152v-89h-152v89zM304 534h413v-67h-413v67zM889 -55h-757v561h131v-60
q0 -8 6 -14t15 -6h454q8 0 14 6t6 14v60h131v-561zM812 233h-213q-9 0 -15 -6t-6 -15t6 -14.5t15 -5.5h213q9 0 15 5.5t6 14.5t-6 15t-15 6zM812 142h-213q-9 0 -15 -6t-6 -14.5t6 -15t15 -6.5h213q9 0 15 6.5t6 15t-6 14.5t-15 6zM578 303q0 -9 6 -15t15 -6h213q9 0 15 6
t6 15t-6 15t-15 6h-213q-9 0 -15 -6t-6 -15zM473 133q-16 16 -36 24l-4 2l3 3q38 38 38 91q0 54 -38 92t-92 38q-53 0 -91 -38t-38 -92q0 -53 38 -91l3 -3q-24 -9 -41 -26q-16 -16 -24 -36t-8 -42v-30q0 -9 6 -15t14 -6h282q9 0 14.5 6t5.5 15v30q0 22 -8 42t-24 36z
M282 316q25 25 62 25t62 -25q26 -26 26 -63q0 -36 -26 -61q-25 -26 -61.5 -26t-62.5 26q-26 25 -26 61q0 37 26 63zM464 46h-240v9q0 15 5 26q6 13 15 23q21 20 49 20h102q15 0 26 -5q14 -5 23 -15q9 -9 15 -23q5 -12 5 -26v-9z" />
    <glyph glyph-name="uniE61F" unicode="&#xe61f;" 
d="M512 793q-102 0 -194.5 -39.5t-159.5 -106.5t-106.5 -159.5t-39.5 -194t39.5 -194t106.5 -159.5t159.5 -107t194.5 -40t194.5 40t159.5 107t106.5 159.5t39.5 194t-39.5 194t-106.5 159.5t-159.5 106.5t-194.5 39.5zM512 -132q-115 0 -213 57t-155 155t-57 213.5
t57 213.5t155 154.5t213 56.5t213 -56.5t155 -154.5t57 -213.5t-57 -213.5t-155 -155t-213 -57zM761 235l-5 1q-4 2 -10 4.5t-13 6.5t-13.5 10t-9.5 14l1 30l6 3q4 2 13.5 15.5t15.5 34.5h3q3 1 7 3t8 6t7.5 12.5t4.5 20.5q1 1 -0.5 7t-7 11t-13.5 1l3 34q0 45 -28 57l-5 2
q-5 2 -13 3t-23 -1q5 2 4 9q-2 12 -36 7q0 2 -18 -3.5t-39 -20.5t-27 -36q3 0 8.5 -1.5t19.5 -8.5t24 -18t16.5 -33t3.5 -50q2 1 9 -7.5t10.5 -23t-4.5 -36.5q1 0 -1.5 -9.5t-11 -20.5t-20.5 -15l-13 -27q-11 -17 -23 -27l18 -8q18 -8 41.5 -18t30.5 -13h107q2 0 5 0.5
t7.5 5.5t4.5 14q0 24 -6 35q-11 21 -38 30zM394 243q-12 4 -20 15t-10.5 20.5t-1.5 9.5q-9 22 -5 36.5t11 23t8 7.5q-2 28 4.5 50t16.5 33t23 18t19.5 8.5t8.5 1.5q-6 21 -27 36t-38.5 20.5t-17.5 3.5q-39 6 -36 -10q1 -5 4 -6q-15 2 -23 1t-13 -3l-5 -2q-37 -16 -26 -85
l2 -6q-8 4 -13.5 -1t-7 -11t-0.5 -7q1 -12 4.5 -20.5t7.5 -12.5t8 -6t7 -3h2q7 -21 15.5 -34t14.5 -16l5 -3q0 -30 1 -30q-3 -8 -9.5 -14t-13 -10t-13 -6.5t-10.5 -4.5l-5 -1q-46 -16 -44 -60l1 -5q0 -9 4 -14t8 -6h5q105 2 105 0q8 4 31.5 13.5t40.5 17.5l18 8
q-24 22 -36 54zM600 149q-1 0 -9.5 4.5t-18.5 12.5t-14 15v7v13v7q4 3 9 8t14 22t10 34q0 1 3.5 0.5t9.5 0t11 3.5q-1 0 2 6t6.5 14.5t5.5 17.5t-1.5 16t-13.5 8q0 -1 -8 6q1 3 2.5 9t1 22t-6.5 29.5t-24.5 28t-48.5 21.5l-6 2q-6 1 -14 2t-15.5 0.5t-12 -5t-2.5 -12.5
q-2 1 -6.5 1t-15 -1.5t-19 -5.5t-15.5 -14.5t-8 -26.5q0 1 -0.5 -2t0 -8.5t0.5 -12.5t0.5 -15.5t-0.5 -17.5q-17 -2 -19 -13q0 -4 1 -12t6.5 -21.5t13.5 -17.5h11q0 -4 0.5 -10.5t10.5 -24t29 -31.5v-28q-12 -20 -72 -37q0 4 -13.5 -2.5t-27 -21t-14.5 -31.5v-4v-8
q0 -6 0.5 -12t4 -10t9.5 -4h313h4q2 0 5.5 7.5t3.5 21.5q5 34 -30 54q-20 12 -52 16z" />
    <glyph glyph-name="uniE620" unicode="&#xe620;" 
d="M614 598v42v172h-498v-1024h789v810h-291zM738 -39h-456v42h456v-42zM738 130h-456v43h456v-43zM738 301h-456v42h456v-42zM738 470h-456v43h456v-43zM684 812h-29v-172h248z" />
    <glyph glyph-name="uniE621" unicode="&#xe621;" 
d="M192 641v-215l28 1q7 54 42.5 93.5t67.5 47.5q21 4 47 1t48 -8l23 -5v-533q0 -9 -6 -17t-13 -12.5t-16.5 -9t-13.5 -5.5t-6 -1l-57 -1l-1 -40h354v39h-65q-13 1 -30.5 13t-28 22.5t-10.5 11.5v533q2 1 7 2.5t20.5 5t29.5 5t35.5 2.5t38.5 -3q28 -5 57.5 -41t44.5 -70
l16 -34h28v218h-640z" />
    <glyph glyph-name="uniE622" unicode="&#xe622;" 
d="M107 644h223q10 22 24 44h-247q-8 0 -14.5 -6.5t-6.5 -15.5t6.5 -15.5t14.5 -6.5zM107 318h262q-17 22 -28 44h-234q-9 0 -15 -6.5t-6 -15.5t6 -15.5t15 -6.5zM803 36h-696q-9 0 -15 -6.5t-6 -15.5t6 -15.5t15 -6.5h696q9 0 15.5 6.5t6.5 15.5t-6.5 15.5t-15.5 6.5z
M931 188l-130 130q42 37 65.5 87.5t23.5 108.5q0 108 -76.5 184.5t-184.5 76.5t-184.5 -76.5t-76.5 -184.5t76.5 -184.5t184.5 -76.5q74 0 137 39l134 -134q7 -7 16 -7t15 6.5t6 15.5t-6 15zM629 296q-90 0 -153.5 64t-63.5 154t63.5 153.5t153.5 63.5t153.5 -63.5
t63.5 -153.5t-63.5 -154t-153.5 -64z" />
    <glyph glyph-name="uniE623" unicode="&#xe623;" 
d="M257 319h512q14 0 23 9.5t9 22.5t-9 22.5t-23 9.5h-512q-13 0 -22.5 -9.5t-9.5 -22.5t9.5 -22.5t22.5 -9.5zM257 127h512q14 0 23 9.5t9 22.5t-9 22.5t-23 9.5h-512q-13 0 -22.5 -9.5t-9.5 -22.5t9.5 -22.5t22.5 -9.5zM448 704h160q13 0 22.5 9.5t9.5 22.5t-9.5 22.5
t-22.5 9.5h-160q-13 0 -22.5 -9.5t-9.5 -22.5t9.5 -22.5t22.5 -9.5zM847 768h-47q-13 0 -22.5 -9.5t-9.5 -22.5t9.5 -22.5t22.5 -9.5h47q5 0 11 -9t6 -23v-96h-704v96q0 13 9 22.5t22 9.5h65q13 0 22.5 9.5t9.5 22.5t-9.5 22.5t-22.5 9.5h-65q-39 0 -67 -28t-28 -68v-640
q0 -40 28 -68t68 -28h640q40 0 68 28t28 68v640q0 40 -24 68t-57 28zM864 32q0 -13 -9.5 -22.5t-22.5 -9.5h-640q-13 0 -22.5 9.5t-9.5 22.5v480h704v-480zM704 672q13 0 22.5 9.5t9.5 22.5v96q0 13 -9.5 22.5t-22.5 9.5t-22.5 -9.5t-9.5 -22.5v-96q0 -13 9.5 -22.5
t22.5 -9.5zM352 672q13 0 22.5 9.5t9.5 22.5v96q0 13 -9.5 22.5t-22.5 9.5t-22.5 -9.5t-9.5 -22.5v-96q0 -13 9.5 -22.5t22.5 -9.5z" />
    <glyph glyph-name="uniE624" unicode="&#xe624;" 
d="M329 638h-96v-43q0 -18 12.5 -31t30.5 -13h53q18 0 30.5 13t12.5 31t-12.5 30.5t-30.5 12.5zM329 638zM329 453h-96v-43q0 -18 12.5 -31t30.5 -13h53q18 0 30.5 13t12.5 31t-12.5 30.5t-30.5 12.5zM329 453zM329 268h-96v-43q0 -18 12.5 -31t30.5 -13h53q18 0 30.5 13
t12.5 31t-12.5 30.5t-30.5 12.5zM329 268zM400 595q0 -18 13 -31t31 -13h52q18 0 30.5 13t12.5 31v43h-95q-18 0 -31 -12.5t-13 -30.5zM400 595zM400 410q0 -18 13 -31t31 -13h52q18 0 30.5 13t12.5 31v43h-95q-18 0 -31 -12.5t-13 -30.5zM400 410zM400 225q0 -18 13 -31
t31 -13h52q18 0 30.5 13t12.5 31v43h-95q-18 0 -31 -12.5t-13 -30.5zM400 225zM724 345v-56q0 -14 9.5 -23.5t23 -9.5t23 9.5t9.5 23.5v88h-32q-14 0 -23.5 -9.5t-9.5 -22.5zM724 345zM757 206h-33v-89q0 -13 9.5 -22.5t23 -9.5t23 9.5t9.5 22.5v56q0 14 -9.5 23.5
t-22.5 9.5zM757 206zM983 19h-64v421q0 31 -40 44l-220 69v226q0 18 -12 30t-30 12h-462q-17 0 -29.5 -12t-12.5 -30v-760h-64q-9 0 -15 -6t-6 -15v-23q0 -9 6 -15t15 -6h42h892q9 0 15.5 6t6.5 15v23q0 9 -6.5 15t-15.5 6zM594 19h-416v695q0 18 12.5 30t29.5 12h332
q18 0 30 -12t12 -30v-695zM854 19h-195v469l155 -38q17 -5 28.5 -21t11.5 -33v-377v0zM854 19z" />
    <glyph glyph-name="uniE625" unicode="&#xe625;" 
d="M767 449h-255v-64h255v64zM255 257h513v64h-513v-64zM255 129h513v64h-513v-64zM64 704v-767l895 1v766h-895zM896 0h-768v640h768v-640zM301 427h88l17 -42h34l-77 191h-33l-78 -191h32zM344 539l38 -91h-74zM895 832h-767v-64h767v64z" />
    <glyph glyph-name="uniE626" unicode="&#xe626;" horiz-adv-x="1000" 
d="M327.5 597q-15.5 0 -26.5 -10.5t-11 -26t11 -26.5t26.5 -11t26.5 11t11 26.5t-11 26t-26.5 10.5zM327.5 299q-15.5 0 -26.5 -10.5t-11 -26t11 -26.5t26.5 -11t26.5 11t11 26.5t-11 26t-26.5 10.5zM327.5 448q-15.5 0 -26.5 -10.5t-11 -26t11 -26.5t26.5 -11t26.5 11
t11 26.5t-11 26t-26.5 10.5zM700 299h-223q-16 0 -27 -10.5t-11 -26t11 -26.5t27 -11h223q15 0 26 11t11 26.5t-11 26t-26 10.5zM700 597h-223q-16 0 -27 -10.5t-11 -26t11 -26.5t27 -11h223q15 0 26 11t11 26.5t-11 26t-26 10.5zM812 821h-596q-31 0 -52.5 -22t-21.5 -53
v-670q0 -31 21.5 -52.5t52.5 -21.5h596q31 0 52.5 21.5t21.5 52.5v670q0 31 -21.5 53t-52.5 22zM812 113q0 -15 -11 -26t-26 -11h-522q-15 0 -26 11t-11 26v596q0 15 11 26t26 11h522q15 0 26 -11t11 -26v-596zM700 448h-223q-16 0 -27 -10.5t-11 -26t11 -26.5t27 -11h223
q15 0 26 11t11 26.5t-11 26t-26 10.5z" />
    <glyph glyph-name="uniE627" unicode="&#xe627;" 
d="M772 579h-522q-8 0 -13.5 -6t-5.5 -14t5.5 -13.5t13.5 -5.5h522q8 0 13.5 5.5t5.5 13.5t-5.5 14t-13.5 6zM791 676h-560q-8 0 -13.5 -6t-5.5 -13.5t5.5 -13.5t13.5 -6h560q8 0 13 6t5 13.5t-5 13.5t-13 6zM949 476l-74 275v2q-10 25 -26 37.5t-48 12.5l-582 -1
q-53 0 -73 -50q-1 -2 -1 -3l-73 -281q-9 -9 -9 -20v-441q0 -15 14.5 -28t30.5 -13h821q15 0 22.5 12t7.5 29v441q0 19 -10 28zM735 165h-448v112h448v-112zM679 445q-40 -1 -59 -1h-209l-68 1h-224l62 293q6 15 13.5 20t24.5 5l582 2q19 0 26 -5t13 -20l63 -295h-224z
M679 445z" />
    <glyph glyph-name="uniE628" unicode="&#xe628;" 
d="M864 -131h-721q-30 0 -51.5 21t-21.5 51v866q0 30 21.5 51.5t51.5 21.5h216v-73h-72v-72h72v-72h-72v-72h72v-72h-72v-73h72v-72h-72v-72h72h144h-72v72h72v72h-72v73h72v72h-72v72h72v72h-72v72v73h145v-361h361v-578q0 -30 -21.5 -51t-51.5 -21zM287 13h72h72h72v217
h-216v-217zM359 158h72v-73h-72v73zM648 880l289 -289h-289v289z" />
    <glyph glyph-name="uniE62A" unicode="&#xe62a;" 
d="M1002 673h-627q-8 0 -14 6t-6 14q0 9 6 15t14 6h627q9 0 15 -6t6 -15q0 -8 -6 -14t-15 -6zM1002 351h-627q-8 0 -14 6t-6 15q0 8 6 14t14 6h627q9 0 15 -6t6 -14q0 -9 -6 -15t-15 -6zM1002 32h-627q-8 0 -14 6t-6 15q0 8 6 14t14 6h627q9 0 15 -6t6 -14q0 -9 -6 -15
t-15 -6zM248 780q-6 6 -14.5 6t-14.5 -6l-129 -129l-53 53q-6 6 -14.5 6t-14.5 -6t-6 -14.5t6 -14.5l65 -67q2 -2 4 -3q14 -9 26 3l145 143q6 6 6 14.5t-6 14.5zM249 460q-6 6 -14.5 6t-14.5 -6l-129 -129l-53 53q-6 6 -14.5 6t-14.5 -6t-6 -14.5t6 -14.5l65 -67q2 -2 4 -3
q14 -9 26 3l145 143q6 6 6 14.5t-6 14.5zM129.5 -70q-50.5 0 -86 35.5t-35.5 86t35.5 86t86 35.5t86 -35.5t35.5 -86t-35.5 -86t-86 -35.5zM129.5 132q-33.5 0 -57 -23.5t-23.5 -57t23.5 -57t57 -23.5t57 23.5t23.5 57t-23.5 57t-57 23.5z" />
  </font>
</defs>
</svg>
