<?xml version="1.0" standalone="no"?><!DOCTYPE svg PUBLIC "-//W3C//DTD SVG 1.1//EN" "http://www.w3.org/Graphics/SVG/1.1/DTD/svg11.dtd"><svg width="200" height="200" viewBox="0 0 200 200" version="1.1" xmlns="http://www.w3.org/2000/svg" xmlns:xlink="http://www.w3.org/1999/xlink"><defs><style type="text/css"><![CDATA[
@font-face { font-family: ifont; src: url("http://at.alicdn.com/t/font_1442373896_4754455.eot?#iefix") format("embedded-opentype"), url("http://at.alicdn.com/t/font_1442373896_4754455.woff") format("woff"), url("http://at.alicdn.com/t/font_1442373896_4754455.ttf") format("truetype"), url("http://at.alicdn.com/t/font_1442373896_4754455.svg#ifont") format("svg"); }

]]></style></defs><g class="transform-group"><g transform="scale(0.1953125, 0.1953125)"><path d="M512.540306 270.663466c-111.982444 0-203.086371 91.103928-203.086371 203.086371 0 111.982444 91.103928 203.086371 203.086371 203.086371 111.982444 0 203.086371-91.103928 203.086371-203.086371C715.626677 361.767394 624.52275 270.663466 512.540306 270.663466zM512.540306 625.670899c-83.769892 0-151.921062-68.152193-151.921062-151.921062s68.152193-151.921062 151.921062-151.921062c83.768869 0 151.921062 68.15117 151.921062 151.921062S596.309174 625.670899 512.540306 625.670899zM513.814322 230.120075c26.472931 0 48.010457-21.537526 48.010457-48.010457 0-26.472931-21.537526-48.010457-48.010457-48.010457s-48.010457 21.537526-48.010457 48.010457C465.803865 208.582549 487.341391 230.120075 513.814322 230.120075zM513.814322 178.954765c1.739621 0 3.154853 1.415232 3.154853 3.154853 0 1.739621-1.415232 3.154853-3.154853 3.154853s-3.154853-1.415232-3.154853-3.154853C510.659469 180.369997 512.074701 178.954765 513.814322 178.954765zM865.308745 279.918247c-19.290345-45.605687-46.898123-86.557378-82.059947-121.719202-35.160801-35.161824-76.113515-62.770626-121.718179-82.059947-47.229674-19.97596-97.383958-30.104645-149.072177-30.104645-51.687196 0-101.841479 10.128685-149.071154 30.104645-45.605687 19.289322-86.557378 46.898123-121.719202 82.059947-35.161824 35.160801-62.770626 76.113515-82.059947 121.719202-19.97596 47.228651-30.104645 97.383958-30.104645 149.071154s10.128685 101.841479 30.104645 149.071154c19.289322 45.604664 46.898123 86.557378 82.059947 121.719202 35.161824 35.160801 76.113515 62.770626 121.719202 82.059947 11.20111 4.737908 22.569018 8.91402 34.081213 12.540617l-58.051137 143.991462-17.783015 0c-14.128789 0-25.582655 11.453866-25.582655 25.582655s11.453866 25.582655 25.582655 25.582655l352.168782 0c0.062422 0 0.12382 0.007163 0.186242 0.007163 0.101307 0 0.202615-0.00614 0.302899-0.007163l35.984562 0c14.129812 0 25.582655-11.453866 25.582655-25.582655s-11.452843-25.582655-25.582655-25.582655l-18.875906 0-57.565067-146.130172c24.321942-8.108678 47.832402-18.653849 70.118987-31.546483 57.155744-33.063023 105.092523-80.609922 138.628314-137.501654 34.561144-58.632375 52.830229-125.786845 52.830229-194.204074C895.41339 377.302205 885.284705 327.147922 865.308745 279.918247zM636.408451 938.371784 394.584823 938.371784l53.159734-131.859144c21.22644 3.609201 42.832528 5.431709 64.713884 5.431709 24.082488 0 48.022737-2.279926 71.496357-6.728238L636.408451 938.371784zM798.506293 597.212754c-29.070082 49.316196-70.625524 90.533946-120.171963 119.193683-50.180889 29.02915-107.541295 44.372603-165.876911 44.372603-88.623433 0-171.944094-34.513048-234.610342-97.179296-62.667272-62.666248-97.179296-145.986909-97.179296-234.611365s34.512025-171.944094 97.179296-234.611365c62.666248-62.667272 145.986909-97.179296 234.610342-97.179296 88.624457 0 171.944094 34.512025 234.611365 97.179296 62.667272 62.667272 97.179296 145.986909 97.179296 234.611365C844.24808 488.275669 828.430836 546.44551 798.506293 597.212754z" fill="#272636"></path></g></g></svg>